<?xml version="1.0" encoding="UTF-8" standalone="no"?>
<!-- Generator: Gravit.io -->
<svg xmlns="http://www.w3.org/2000/svg" xmlns:xlink="http://www.w3.org/1999/xlink" style="isolation:isolate" viewBox="0 0 102 25.4" width="102pt" height="25.4pt">
    <defs>
        <clipPath id="_clipPath_Y1e4VSadrGH39LNwMhYn26YJTZG8kgfv">
            <rect width="102" height="25.4" />
        </clipPath>
    </defs>
    <g clip-path="url(#_clipPath_Y1e4VSadrGH39LNwMhYn26YJTZG8kgfv)">
        <g>
            <path d=" M 32.8 8.114 L 36.552 8.114 L 36.552 17.939 L 37.803 17.939 L 37.803 8.114 L 41.572 8.114 L 41.572 6.956 L 32.8 6.956 L 32.8 8.114 Z " fill="rgb(242,242,242)" />
            <path d=" M 59.002 10.008 C 57.85 10.008 57.005 10.477 56.487 11.4 C 56.083 10.476 55.322 10.008 54.221 10.008 C 53.332 10.008 52.627 10.324 52.168 10.925 L 52.168 10.133 L 50.995 10.133 L 51.011 17.939 L 52.215 17.939 L 52.215 14.184 C 52.215 12.101 52.821 11.088 54.066 11.088 C 55.169 11.088 55.729 11.878 55.729 13.437 L 55.729 17.939 L 56.933 17.939 L 56.933 14.184 C 56.933 12.101 57.559 11.088 58.846 11.088 C 60.463 11.088 60.463 12.69 60.463 13.374 L 60.463 17.939 L 61.667 17.939 L 61.667 13.079 C 61.667 11.07 60.746 10.008 59.002 10.008 Z " fill="rgb(242,242,242)" />
            <path d=" M 45.104 10.008 C 42.703 10.008 41.629 12.051 41.629 14.075 C 41.629 16.498 43.042 18.064 45.228 18.064 C 46.488 18.064 47.363 17.684 48.249 16.752 L 48.296 16.702 L 47.45 15.963 L 47.408 16.009 C 46.778 16.679 46.151 16.953 45.244 16.953 C 43.785 16.953 42.887 15.996 42.835 14.389 L 48.444 14.389 L 48.453 14.335 C 48.483 14.159 48.501 13.898 48.501 13.655 C 48.501 12.699 48.218 11.817 47.703 11.17 C 47.098 10.41 46.199 10.008 45.104 10.008 Z  M 45.104 11.041 C 46.393 11.041 47.245 11.86 47.328 13.172 C 47.328 13.252 47.333 13.313 47.337 13.356 L 42.838 13.356 C 42.961 11.969 43.864 11.041 45.104 11.041 Z " fill="rgb(242,242,242)" />
            <path d=" M 93.056 10.008 C 91.723 10.008 90.712 10.516 89.874 11.606 L 89.837 11.656 L 90.716 12.395 L 90.757 12.338 C 91.377 11.485 92.102 11.088 93.04 11.088 C 94.301 11.088 94.968 11.782 94.968 13.094 L 94.968 13.387 L 93.46 13.387 C 91.965 13.387 91.112 13.525 90.514 13.864 C 89.913 14.237 89.596 14.854 89.596 15.648 C 89.596 17.161 90.61 18.064 92.308 18.064 C 93.475 18.064 94.382 17.664 95.009 16.873 L 95.065 17.939 L 96.172 17.939 L 96.172 13.094 C 96.172 12.137 95.889 11.351 95.352 10.819 C 94.815 10.289 94.021 10.008 93.056 10.008 Z  M 94.968 14.389 L 94.968 14.433 C 94.968 16.046 94.068 17.047 92.62 17.047 C 91.497 17.047 90.8 16.535 90.8 15.71 C 90.8 15.287 90.933 14.969 91.196 14.764 C 91.55 14.484 92.145 14.389 93.554 14.389 L 94.968 14.389 Z " fill="rgb(242,242,242)" />
            <path d=" M 87.123 10.008 C 86.438 10.008 85.521 10.207 84.914 11.119 L 84.914 10.133 L 83.71 10.133 L 83.71 17.939 L 84.914 17.939 L 84.914 13.592 C 84.914 12.057 85.677 11.104 86.905 11.104 C 87.22 11.104 87.533 11.176 87.891 11.332 L 87.943 11.355 L 88.537 10.377 L 88.478 10.345 C 88.072 10.118 87.629 10.008 87.123 10.008 Z " fill="rgb(242,242,242)" />
            <path d=" M 100.292 16.877 L 100.292 6.96 L 99.158 6.96 L 99.158 16.964 C 99.158 17.529 99.627 17.987 100.203 17.987 L 102 17.987 L 102 16.877 L 100.292 16.877 Z " fill="rgb(242,242,242)" />
            <path d=" M 77.438 10.008 C 76.366 10.008 75.405 10.415 74.729 11.155 C 74.064 11.882 73.698 12.903 73.698 14.028 C 73.698 15.155 74.064 16.179 74.729 16.91 C 75.405 17.654 76.368 18.064 77.438 18.064 C 79.614 18.064 81.193 16.367 81.193 14.028 C 81.193 12.905 80.822 11.885 80.148 11.154 C 79.466 10.415 78.504 10.008 77.438 10.008 Z  M 79.989 14.028 C 79.989 14.865 79.75 15.614 79.315 16.14 C 78.857 16.692 78.208 16.984 77.438 16.984 C 75.897 16.984 74.902 15.824 74.902 14.028 C 74.902 12.242 75.897 11.088 77.438 11.088 C 78.988 11.088 79.989 12.242 79.989 14.028 Z " fill="rgb(242,242,242)" />
            <path d=" M 68.313 9.993 C 67.288 9.993 66.438 10.356 65.839 11.044 L 65.839 10.133 L 64.635 10.133 L 64.635 21.116 L 65.839 21.116 L 65.839 17.027 C 66.438 17.706 67.29 18.064 68.313 18.064 C 70.456 18.064 71.788 16.518 71.788 14.028 C 71.788 12.826 71.47 11.814 70.868 11.102 C 70.255 10.376 69.371 9.993 68.313 9.993 Z  M 70.584 14.028 C 70.584 14.899 70.37 15.633 69.965 16.153 C 69.542 16.697 68.916 16.984 68.157 16.984 C 66.67 16.984 65.746 15.852 65.746 14.028 C 65.746 12.205 66.67 11.073 68.157 11.073 C 69.654 11.073 70.584 12.205 70.584 14.028 Z " fill="rgb(242,242,242)" />
        </g>
        <path d=" M 17.123 8.235 C 16.524 3.747 15.008 0 12.679 0 C 10.35 0 8.834 3.746 8.235 8.235 C 3.747 8.833 0 10.35 0 12.679 C 0 15.008 3.747 16.524 8.235 17.123 C 8.833 21.61 10.35 25.358 12.679 25.358 C 15.008 25.358 16.524 21.611 17.123 17.123 C 21.611 16.524 25.358 15.008 25.358 12.679 C 25.358 10.35 21.61 8.833 17.123 8.235 Z  M 8.089 15.815 C 3.79 15.194 1.284 13.773 1.284 12.678 C 1.284 11.583 3.791 10.162 8.089 9.541 C 7.994 10.576 7.945 11.632 7.945 12.678 C 7.945 13.724 7.994 14.782 8.089 15.815 Z  M 12.68 1.283 C 13.775 1.283 15.196 3.79 15.817 8.088 C 14.782 7.993 13.725 7.944 12.68 7.944 C 11.634 7.944 10.577 7.993 9.543 8.088 C 10.164 3.79 11.584 1.283 12.68 1.283 Z  M 17.27 15.815 C 17.058 15.846 16.19 15.948 15.971 15.97 C 15.95 16.19 15.847 17.057 15.817 17.269 C 15.196 21.567 13.775 24.074 12.68 24.074 C 11.584 24.074 10.164 21.567 9.543 17.269 C 9.512 17.057 9.41 16.189 9.388 15.97 C 9.288 14.951 9.228 13.857 9.228 12.678 C 9.228 11.501 9.288 10.406 9.388 9.386 C 10.407 9.286 11.501 9.226 12.68 9.226 C 13.857 9.226 14.952 9.286 15.971 9.386 C 16.191 9.408 17.058 9.51 17.27 9.541 C 21.568 10.162 24.076 11.583 24.076 12.678 C 24.075 13.772 21.568 15.194 17.27 15.815 Z " fill="rgb(242,242,242)" />
    </g>
</svg>