<svg xmlns="http://www.w3.org/2000/svg" viewBox="0 0 101.74 40">
  <defs>
    <linearGradient
      id="logo-temporal-white-a"
      x1="-614.48"
      y1="395.19"
      x2="-615.24"
      y2="395.91"
      gradientTransform="matrix(40 0 0 -40 24609 15837)"
      gradientUnits="userSpaceOnUse"
    >
      <stop offset="0" stop-color="#44d39a" stop-opacity="0"></stop>
      <stop offset="1" stop-color="#44d39a"></stop>
    </linearGradient>
  </defs>
  <title>logo-temporal-white</title>
  <circle cx="20" cy="20" r="20" fill="url(#logo-temporal-white-a)"></circle>
  <g fill="#f6f6f7" style="isolation: isolate;">
    <path
      d="M30.94 11.48v1.25h-2.49V20H27v-7.27h-2.53v-1.25zM40.47 12.7h-3.66v2.35h3.46v1.18h-3.46v2.56h3.75V20h-5.22v-8.52h5.13zM48.62 17.92h-1.15l-.61-3c-.11-.49-.25-1.38-.32-1.92h-.09c0 .7.06 1.74.06 2.41V20h-1.32v-8.52h1.86l.8 3.85c.06.36.14.83.16 1.08h.07c0-.25.1-.72.16-1.08l.8-3.85h1.86V20h-1.32v-4.61c0-.67 0-1.71.06-2.41h-.08c-.06.54-.22 1.43-.33 1.92zM57.15 20h-1.47v-8.52h2.94c2.29 0 2.9 1.42 2.9 2.57s-.68 2.6-3 2.6h-1.37zm1.18-4.45c1.33 0 1.64-.79 1.64-1.46a1.36 1.36 0 00-1.56-1.47h-1.26v2.93zM65.2 16.17v-.86c0-2.51 1-4 3.17-4s3.18 1.52 3.18 4v.86c0 2.51-1 4-3.18 4s-3.17-1.49-3.17-4zm4.84 0v-.94c0-1.91-.51-2.78-1.67-2.78s-1.66.87-1.66 2.78v.94c0 1.92.51 2.78 1.66 2.78S70 18.13 70 16.21zM78.51 16.51h-1.3V20h-1.48v-8.52h2.9c1.87 0 2.94.93 2.94 2.55A2.24 2.24 0 0180 16.26L81.85 20h-1.62zm-1.3-1.06h1.29c1 0 1.53-.5 1.53-1.41s-.53-1.42-1.53-1.42h-1.29zM90 17.83h-2.65L86.73 20h-1.45l2.57-8.52h1.7L92.12 20h-1.45zm-2.36-1.19h2a38.26 38.26 0 01-1-3.93 39.2 39.2 0 01-.96 3.93zM97.88 11.48v7.27h3.86V20h-5.33v-8.52z"
    ></path>
  </g>
</svg>
